Land_normalized_Motion_pl11
version=1
nRows=10
nColumns=43
inDegrees=yes
endheader
time		pelvis_tilt		pelvis_list		pelvis_rotation		pelvis_tx		pelvis_ty		pelvis_tz		hip_flexion_r		hip_adduction_r		hip_rotation_r		knee_angle_r		ankle_angle_r		subtalar_angle_r		mtp_angle_r		hip_flexion_l		hip_adduction_l		hip_rotation_l		knee_angle_l		ankle_angle_l		subtalar_angle_l		mtp_angle_l		lumbar_extension		lumbar_bending		lumbar_rotation		neck_flexion		neck_lateral_bending		neck_rotation		arm_flex_r		arm_add_r		arm_rot_r		elbow_flex_r		pro_sup_r		wrist_flex_r		wrist_dev_r		hand_finger_flex_r		arm_flex_l		arm_add_l		arm_rot_l		elbow_flex_l		pro_sup_l		wrist_flex_l		wrist_dev_l		hand_finger_flex_l		
2.349848		-2.332881		3.775794		87.896970		-0.020527		0.402419		0.458182		95.680043		-10.110831		9.910611		-136.025296		24.219300		17.155765		26.109457		90.500161		-9.629863		-1.748556		-136.632223		29.584829		16.419516		26.146660		-61.766094		-3.226518		0.608657		15.030559		7.357201		-3.718088		90.223444		-25.519616		24.499615		50.754872		123.751360		-6.222732		-16.735126		-29.300018		92.728652		-18.666828		28.375233		52.190204		140.660772		-25.252580		-4.027884		-3.066359		
2.352980		-2.256226		3.483379		87.897206		-0.020679		0.399567		0.458044		96.270185		-10.439201		9.882703		-136.292626		24.512805		17.522077		26.155441		91.220482		-9.911331		-1.718589		-136.974933		29.613705		16.524322		26.088105		-61.715424		-3.217314		0.535143		15.528813		7.438523		-3.701679		92.091477		-24.683422		24.502685		50.076761		123.905554		-5.938863		-16.385677		-29.332573		94.764752		-17.809912		28.338648		51.393602		140.529988		-24.775674		-3.830093		-3.127574		
2.356111		-2.106357		3.350126		87.920380		-0.020781		0.396759		0.457862		96.691262		-10.750776		9.821663		-136.623608		24.896268		18.196431		26.230771		91.884583		-10.135998		-1.569636		-137.405332		29.457663		16.663218		25.984502		-61.781124		-3.169748		0.549047		15.805976		7.658397		-3.704740		94.080134		-24.045607		24.844826		49.270614		124.254471		-5.426543		-16.201804		-29.369134		96.961860		-17.047640		28.775996		50.467208		140.342705		-24.111536		-3.805696		-3.278071		
2.359242		-1.891575		3.384579		87.941738		-0.020911		0.394361		0.457627		96.878100		-11.043975		9.741200		-136.933195		25.263152		19.091724		26.317309		92.397962		-10.334382		-1.350373		-137.857433		29.186817		16.765545		25.778993		-62.028598		-3.091862		0.644334		16.041827		7.907592		-3.740045		96.111104		-23.485161		25.232416		48.351054		124.737707		-4.776479		-16.271989		-29.648107		99.239722		-16.312589		29.461585		49.428434		139.771385		-23.445817		-3.853696		-3.830014		
2.362374		-1.800118		3.201344		87.931318		-0.020934		0.391952		0.457407		97.357235		-11.238571		9.656798		-137.208099		25.409444		19.369276		26.349836		93.043876		-10.527658		-1.312376		-138.196112		29.111996		16.768874		25.702240		-62.099753		-3.080350		0.597603		16.483676		7.967211		-3.742586		97.852132		-22.700565		25.140913		47.664777		124.863111		-4.541457		-16.070260		-29.778156		101.138808		-15.507751		29.409184		48.679130		139.417390		-23.104556		-3.611416		-4.066786		
2.365505		-1.669193		3.100440		87.907369		-0.021042		0.389627		0.457069		97.744712		-11.404163		9.622102		-137.477872		25.480583		19.643439		26.385154		93.679636		-10.714090		-1.187180		-138.596656		28.799863		16.647114		25.628247		-62.216149		-3.082251		0.618544		16.882259		8.127306		-3.757587		99.690199		-22.027458		25.282081		46.737636		125.038079		-4.202102		-15.947413		-29.834160		103.130917		-14.716946		29.672388		47.770652		139.074660		-22.647633		-3.399404		-4.263620		
2.368636		-1.474337		3.299322		87.863855		-0.021067		0.387948		0.456824		97.766965		-11.530191		9.477797		-137.757688		25.499752		20.084400		26.436263		94.014962		-10.864328		-1.038409		-139.000921		28.208305		16.247988		25.467408		-62.672400		-3.075412		0.711415		17.117033		8.378375		-3.815598		101.678964		-21.519437		25.705148		45.684739		125.294924		-3.704264		-16.423335		-30.218533		105.350865		-14.055427		30.569597		46.722690		138.005115		-22.248955		-3.327792		-5.114525		
2.371768		-1.395859		3.194624		87.837830		-0.021239		0.386014		0.456538		98.153709		-11.654262		9.441778		-137.991521		25.533256		20.216816		26.454438		94.573159		-10.971264		-1.035311		-139.301994		28.008342		16.046776		25.400798		-62.826372		-3.079387		0.665445		17.527307		8.436468		-3.816748		103.373630		-20.809307		25.655991		44.864482		125.303861		-3.510446		-16.405773		-30.501189		107.168938		-13.329337		30.733275		45.941093		137.215622		-22.037274		-3.068640		-5.666640		
2.374899		-1.286388		3.242382		87.831513		-0.021492		0.384302		0.456228		98.386142		-11.786302		9.378640		-138.248601		25.409495		20.296010		26.439484		95.010587		-11.017700		-1.042463		-139.639788		27.466121		15.549547		25.339006		-63.129314		-3.060699		0.656496		17.823269		8.634974		-3.822175		105.174949		-20.242594		25.918810		43.950718		125.272041		-3.201157		-16.541819		-30.766572		109.146792		-12.662590		31.303069		45.017341		136.318201		-21.697565		-2.929089		-6.303674		
2.378030		-1.224247		3.125076		87.847584		-0.021765		0.382447		0.455883		98.820678		-11.921708		9.347898		-138.493051		25.406597		20.263827		26.413736		95.541608		-11.057894		-1.093989		-139.917362		27.322792		15.252173		25.351392		-63.262461		-3.030787		0.594833		18.265488		8.655383		-3.797799		106.769998		-19.557838		25.840050		43.147787		125.062586		-3.114606		-16.433448		-31.012682		110.842730		-11.937647		31.400169		44.270952		135.499332		-21.551427		-2.702808		-6.840519		
